SplineFontDB: 3.0
FontName: elian_cc_variant
FullName: Elian (CC, variant)
FamilyName: Elian Variant
Weight: Regular
Copyright: Copyright Tim Howard (see CONTRIBUTORS), C.C. Elian (script author);
UComments: "2011-6-11: Created." 
Version: 001.000
ItalicAngle: 0
UnderlinePosition: -100
UnderlineWidth: 50
Ascent: 800
Descent: 200
LayerCount: 2
Layer: 0 0 "Back"  1
Layer: 1 0 "Fore"  0
NeedsXUIDChange: 1
XUID: [1021 637 1380666656 8955201]
FSType: 0
OS2Version: 0
OS2_WeightWidthSlopeOnly: 0
OS2_UseTypoMetrics: 1
CreationTime: 1307767741
ModificationTime: 1308378572
PfmFamily: 17
TTFWeight: 500
TTFWidth: 5
LineGap: 90
VLineGap: 0
OS2TypoAscent: 0
OS2TypoAOffset: 1
OS2TypoDescent: 0
OS2TypoDOffset: 1
OS2TypoLinegap: 90
OS2WinAscent: 0
OS2WinAOffset: 1
OS2WinDescent: 0
OS2WinDOffset: 1
HheadAscent: 0
HheadAOffset: 1
HheadDescent: 0
HheadDOffset: 1
OS2Vendor: 'PfEd'
DEI: 91125
LangName: 1033 
Encoding: win
UnicodeInterp: none
NameList: Adobe Glyph List
DisplaySize: -24
AntiAlias: 1
FitToEm: 1
WinInfo: 0 32 8
Grid
-1000 706 m 0
 2000 706 l 0
-1000 532 m 0
 2000 532 l 0
EndSplineSet
TeXData: 1 0 0 1048576 524288 349525 0 1048576 349525 783286 444596 497025 792723 393216 433062 380633 303038 157286 324010 404750 52429 2506097 1059062 262144
BeginChars: 256 95

StartChar: exclam
Encoding: 33 33 0
Width: 180
Flags: W
HStem: 0 100<40 140> 780 20G<40 140>
VStem: 40 100<0 100 200 800>
LayerCount: 2
Fore
SplineSet
40 0 m 0
 40 100 l 0
 140 100 l 0
 140 0 l 0
 40 0 l 0
40 200 m 0
 40 800 l 0
 140 800 l 0
 140 200 l 0
 40 200 l 0
EndSplineSet
Validated: 1
EndChar

StartChar: A
Encoding: 65 65 1
Width: 880
VWidth: 0
Flags: HW
HStem: 0 21G<740 840> 0 21G<740 840> 700 100<40 740>
VStem: 740 100<0 700>
LayerCount: 2
Fore
SplineSet
40 800 m 25xb0
 840 800 l 25
 840 0 l 25
 740 0 l 25
 740 700 l 25
 40 700 l 25
 40 800 l 25xb0
EndSplineSet
Validated: 1
EndChar

StartChar: B
Encoding: 66 66 2
Width: 880
VWidth: 0
Flags: HW
HStem: 0 100<40 740> 700 100<40 740>
VStem: 740 100<100 700>
LayerCount: 2
Fore
SplineSet
40 800 m 29
 840 800 l 29
 840 0 l 29
 40 0 l 29
 40 100 l 29
 740 100 l 29
 740 700 l 29
 40 700 l 29
 40 800 l 29
EndSplineSet
Validated: 1
EndChar

StartChar: C
Encoding: 67 67 3
Width: 880
VWidth: 0
Flags: HW
HStem: 0 100<40 740> 780 20G<740 840>
VStem: 740 100<100 800>
LayerCount: 2
Fore
SplineSet
40 0 m 29
 40 100 l 29
 740 100 l 29
 740 800 l 29
 840 800 l 29
 840 0 l 29
 40 0 l 29
EndSplineSet
Validated: 1
EndChar

StartChar: D
Encoding: 68 68 4
Width: 880
VWidth: 0
Flags: HW
HStem: 0 21G<40 140 740 840> 0 21G<40 140 740 840> 700 100<140 740>
VStem: 40 100<0 700> 740 100<0 700>
LayerCount: 2
Fore
SplineSet
40 0 m 29xb8
 40 800 l 29
 840 800 l 29
 840 0 l 29
 740 0 l 29
 740 700 l 29
 140 700 l 29
 140 0 l 29
 40 0 l 29xb8
EndSplineSet
Validated: 1
EndChar

StartChar: O
Encoding: 79 79 5
Width: 880
VWidth: 0
Flags: W
HStem: 0 100<140 740> 780 20G<40 140>
VStem: 40 100<100 800> 740 100<100 400>
LayerCount: 2
Fore
SplineSet
840 400 m 29
 840 0 l 25
 40 0 l 25
 40 800 l 25
 140 800 l 25
 140 100 l 25
 740 100 l 25
 740 400 l 29
 840 400 l 29
EndSplineSet
Validated: 1
EndChar

StartChar: E
Encoding: 69 69 6
Width: 880
VWidth: 0
Flags: HW
HStem: 0 100<140 740> 700 100<140 740>
VStem: 40 100<100 700> 740 100<100 700>
LayerCount: 2
Fore
SplineSet
140 700 m 29
 140 100 l 21
 740 100 l 13
 740 700 l 29
 140 700 l 29
840 0 m 29
 40 0 l 29
 40 800 l 21
 840 800 l 13
 840 0 l 29
EndSplineSet
Validated: 1
EndChar

StartChar: F
Encoding: 70 70 7
Width: 880
VWidth: 0
Flags: HW
HStem: 0 100<140 740> 780 20G<40 140 740 840>
VStem: 40 100<100 800> 740 100<100 800>
LayerCount: 2
Fore
SplineSet
40 800 m 29
 140 800 l 29
 140 100 l 29
 740 100 l 29
 740 800 l 29
 840 800 l 29
 840 0 l 29
 40 0 l 29
 40 800 l 29
EndSplineSet
Validated: 1
EndChar

StartChar: G
Encoding: 71 71 8
Width: 880
VWidth: 0
Flags: HW
HStem: 0 21G<40 140> 0 21G<40 140> 700 100<140 840>
VStem: 40 100<0 700>
LayerCount: 2
Fore
SplineSet
840 800 m 29xb0
 840 700 l 29
 140 700 l 29
 140 0 l 29
 40 0 l 29
 40 800 l 29
 840 800 l 29xb0
EndSplineSet
Validated: 1
EndChar

StartChar: J
Encoding: 74 74 9
Width: 680
VWidth: 0
Flags: HW
HStem: 0 21G<540 640> 0 21G<540 640> 700 100<40 540>
VStem: 540 100<0 700>
LayerCount: 2
Fore
SplineSet
40 800 m 25xb0
 640 800 l 29
 640 0 l 25
 540 0 l 25
 540 700 l 25
 40 700 l 25
 40 800 l 25xb0
EndSplineSet
Validated: 1
EndChar

StartChar: b
Encoding: 98 98 10
Width: 680
VWidth: 0
Flags: W
HStem: 0 100<40 540> 500 100<40 540>
VStem: 540 100<100 500>
LayerCount: 2
Fore
SplineSet
40 600 m 29
 640 600 l 29
 640 0 l 29
 40 0 l 29
 40 100 l 29
 540 100 l 29
 540 500 l 29
 40 500 l 29
 40 600 l 29
EndSplineSet
Validated: 1
EndChar

StartChar: H
Encoding: 72 72 11
Width: 880
VWidth: 0
Flags: HW
HStem: 0 100<140 840> 700 100<140 840>
VStem: 40 100<100 700>
LayerCount: 2
Fore
SplineSet
840 800 m 29
 840 700 l 29
 140 700 l 29
 140 100 l 29
 840 100 l 29
 840 0 l 29
 40 0 l 29
 40 800 l 29
 840 800 l 29
EndSplineSet
Validated: 1
EndChar

StartChar: I
Encoding: 73 73 12
Width: 880
VWidth: 0
Flags: W
HStem: 0 100<140 840> 780 20G<40 140>
VStem: 40 100<100 800>
LayerCount: 2
Fore
SplineSet
840 0 m 25
 40 0 l 25
 40 800 l 25
 140 800 l 25
 140 100 l 25
 840 100 l 25
 840 0 l 25
EndSplineSet
Validated: 1
EndChar

StartChar: R
Encoding: 82 82 13
Width: 680
VWidth: 0
Flags: HW
HStem: 0 100<140 640> 780 20G<40 140> 780 20G<40 140>
VStem: 40 100<100 800>
LayerCount: 2
Fore
SplineSet
640 0 m 29xd0
 40 0 l 29
 40 800 l 29
 140 800 l 29
 140 100 l 29
 640 100 l 29
 640 0 l 29xd0
EndSplineSet
Validated: 1
EndChar

StartChar: S
Encoding: 83 83 14
Width: 680
VWidth: 0
Flags: HW
HStem: 0 21G<540 640> 0 21G<540 640> 320 180<240 340> 700 100<40 540>
VStem: 240 100<320 500> 540 100<0 700>
LayerCount: 2
Fore
SplineSet
340 320 m 13x3c
 240 320 l 29
 240 500 l 29
 340 500 l 21
 340 320 l 13x3c
40 800 m 25
 640 800 l 25
 640 0 l 25
 540 0 l 25xbc
 540 700 l 25
 40 700 l 25
 40 800 l 25
EndSplineSet
Validated: 1
EndChar

StartChar: W
Encoding: 87 87 15
Width: 880
VWidth: 0
Flags: HW
HStem: 0 100<140 740> 330 140<370 510> 700 100<140 740>
VStem: 40 100<-200 0 100 700> 370 140<330 470> 740 100<100 700>
CounterMasks: 1 fc
LayerCount: 2
Fore
SplineSet
510 330 m 13
 370 330 l 29
 370 470 l 29
 510 470 l 21
 510 330 l 13
140 100 m 25
 740 100 l 25
 740 700 l 17
 140 700 l 9
 140 100 l 25
840 800 m 25
 840 0 l 17
 140 0 l 1
 140 -200 l 1
 40 -200 l 1
 40 0 l 1
 40 800 l 9
 840 800 l 25
EndSplineSet
Validated: 1
EndChar

StartChar: U
Encoding: 85 85 16
Width: 680
VWidth: 0
Flags: HW
HStem: 0 100<40 540> 300 180<240 340> 780 20G<540 640> 780 20G<540 640>
VStem: 240 100<300 480> 540 100<100 800>
LayerCount: 2
Fore
SplineSet
340 480 m 17xcc
 340 300 l 9
 240 300 l 25
 240 480 l 25
 340 480 l 17xcc
40 0 m 25
 40 100 l 25
 540 100 l 25
 540 800 l 25
 640 800 l 25xec
 640 0 l 25
 40 0 l 25
EndSplineSet
Validated: 1
EndChar

StartChar: K
Encoding: 75 75 17
Width: 880
VWidth: 0
Flags: HW
HStem: 0 100<40 740> 700 100<440 740>
VStem: 740 100<100 700>
LayerCount: 2
Fore
SplineSet
440 800 m 29
 840 800 l 25
 840 0 l 25
 40 0 l 25
 40 100 l 25
 740 100 l 25
 740 700 l 25
 440 700 l 25
 440 800 l 29
EndSplineSet
Validated: 1
EndChar

StartChar: L
Encoding: 76 76 18
Width: 680
VWidth: 0
Flags: HW
HStem: 0 100<40 540> 780 20G<540 640> 780 20G<540 640>
VStem: 540 100<100 800>
LayerCount: 2
Fore
SplineSet
40 0 m 29xd0
 40 100 l 29
 540 100 l 29
 540 800 l 29
 640 800 l 29
 640 0 l 29
 40 0 l 29xd0
EndSplineSet
Validated: 1
EndChar

StartChar: M
Encoding: 77 77 19
Width: 880
VWidth: 0
Flags: HW
HStem: 0 21G<40 140> 0 21G<40 140> 700 100<140 740>
VStem: 40 100<0 700> 740 100<200 700>
LayerCount: 2
Fore
SplineSet
840 400 m 29xb8
 740 400 l 25
 740 700 l 25
 140 700 l 25
 140 0 l 25
 40 0 l 25
 40 800 l 25
 840 800 l 25
 840 400 l 29xb8
EndSplineSet
Validated: 1
EndChar

StartChar: N
Encoding: 78 78 20
Width: 880
VWidth: 0
Flags: HW
HStem: 0 100<140 740> 700 100<140 740>
VStem: 40 100<-200 0 100 700> 740 100<100 700>
LayerCount: 2
Fore
SplineSet
140 100 m 25
 740 100 l 25
 740 700 l 17
 140 700 l 9
 140 100 l 25
840 800 m 25
 840 0 l 17
 140 0 l 1
 140 -200 l 1
 40 -200 l 1
 40 0 l 9
 40 800 l 25
 840 800 l 25
EndSplineSet
Validated: 1
EndChar

StartChar: P
Encoding: 80 80 21
Width: 680
VWidth: 0
Flags: HW
HStem: 0 21G<40 140> 0 21G<40 140> 700 100<140 640>
VStem: 40 100<0 700>
LayerCount: 2
Fore
SplineSet
640 800 m 29xb0
 640 700 l 29
 140 700 l 29
 140 0 l 29
 40 0 l 29
 40 800 l 29
 640 800 l 29xb0
EndSplineSet
Validated: 1
EndChar

StartChar: Q
Encoding: 81 81 22
Width: 880
VWidth: 0
Flags: HW
HStem: 0 100<140 840> 700 100<140 440>
VStem: 40 100<100 700>
LayerCount: 2
Fore
SplineSet
440 800 m 29
 440 700 l 29
 140 700 l 25
 140 100 l 25
 840 100 l 25
 840 0 l 25
 40 0 l 25
 40 800 l 25
 440 800 l 29
EndSplineSet
Validated: 1
EndChar

StartChar: a
Encoding: 97 97 23
Width: 680
VWidth: 0
Flags: HMW
HStem: 0 21G<430 580> 400 150<30 430> 817 60
VStem: 430 150<0 400>
LayerCount: 2
Fore
SplineSet
40 600 m 29
 640 600 l 29
 640 0 l 29
 540 0 l 29
 540 500 l 29
 40 500 l 29
 40 600 l 29
EndSplineSet
Validated: 1
EndChar

StartChar: h
Encoding: 104 104 24
Width: 680
VWidth: 0
Flags: W
HStem: 0 100<140 640> 500 100<140 640>
VStem: 40 100<100 500>
LayerCount: 2
Fore
SplineSet
640 600 m 25
 640 500 l 25
 140 500 l 25
 140 100 l 25
 640 100 l 25
 640 0 l 25
 40 0 l 25
 40 600 l 25
 640 600 l 25
EndSplineSet
Validated: 1
EndChar

StartChar: k
Encoding: 107 107 25
Width: 680
VWidth: 0
Flags: W
HStem: 0 100<40 540> 500 100<340 540>
VStem: 540 100<100 500>
LayerCount: 2
Fore
SplineSet
340 600 m 29
 640 600 l 25
 640 0 l 25
 40 0 l 25
 40 100 l 25
 540 100 l 25
 540 500 l 25
 340 500 l 29
 340 600 l 29
EndSplineSet
Validated: 1
EndChar

StartChar: l
Encoding: 108 108 26
Width: 480
VWidth: 0
Flags: W
HStem: 0 100<40 340> 580 20G<340 440> 580 20G<340 440>
VStem: 340 100<100 600>
LayerCount: 2
Fore
SplineSet
40 0 m 29xd0
 40 100 l 29
 340 100 l 29
 340 600 l 29
 440 600 l 29
 440 0 l 29
 40 0 l 29xd0
EndSplineSet
Validated: 1
EndChar

StartChar: c
Encoding: 99 99 27
Width: 680
VWidth: 0
Flags: W
HStem: 0 100<40 540> 580 20G<540 640> 580 20G<540 640>
VStem: 540 100<100 600>
LayerCount: 2
Fore
SplineSet
40 0 m 25xd0
 40 100 l 25
 540 100 l 25
 540 600 l 25
 640 600 l 25
 640 0 l 25
 40 0 l 25xd0
EndSplineSet
Validated: 1
EndChar

StartChar: d
Encoding: 100 100 28
Width: 680
VWidth: 0
Flags: W
HStem: 0 21G<40 140 540 640> 0 21G<40 140 540 640> 500 100<140 540>
VStem: 40 100<0 500> 540 100<0 500>
LayerCount: 2
Fore
SplineSet
40 0 m 29xb8
 40 600 l 29
 640 600 l 29
 640 0 l 29
 540 0 l 29
 540 500 l 29
 140 500 l 29
 140 0 l 29
 40 0 l 29xb8
EndSplineSet
Validated: 1
EndChar

StartChar: e
Encoding: 101 101 29
Width: 680
VWidth: 0
Flags: W
HStem: 0 100<140 540> 500 100<140 540>
VStem: 40 100<100 500> 540 100<100 500>
LayerCount: 2
Fore
SplineSet
140 500 m 29
 140 100 l 21
 540 100 l 13
 540 500 l 29
 140 500 l 29
640 0 m 29
 40 0 l 29
 40 600 l 21
 640 600 l 13
 640 0 l 29
EndSplineSet
Validated: 1
EndChar

StartChar: f
Encoding: 102 102 30
Width: 680
VWidth: 0
Flags: W
HStem: 0 100<140 540> 580 20G<40 140 540 640> 580 20G<40 140 540 640>
VStem: 40 100<100 600> 540 100<100 600>
LayerCount: 2
Fore
SplineSet
40 600 m 25xd8
 140 600 l 25
 140 100 l 25
 540 100 l 25
 540 600 l 25
 640 600 l 25
 640 0 l 25
 40 0 l 25
 40 600 l 25xd8
EndSplineSet
Validated: 1
EndChar

StartChar: g
Encoding: 103 103 31
Width: 680
VWidth: 0
Flags: W
HStem: 0 21G<40 140> 0 21G<40 140> 500 100<140 640>
VStem: 40 100<0 500>
LayerCount: 2
Fore
SplineSet
640 600 m 29xb0
 640 500 l 29
 140 500 l 29
 140 0 l 29
 40 0 l 29
 40 600 l 29
 640 600 l 29xb0
EndSplineSet
Validated: 1
EndChar

StartChar: i
Encoding: 105 105 32
Width: 680
VWidth: 0
Flags: W
HStem: 0 100<140 640> 580 20G<40 140> 580 20G<40 140>
VStem: 40 100<100 600>
LayerCount: 2
Fore
SplineSet
640 0 m 29xd0
 40 0 l 29
 40 600 l 29
 140 600 l 29
 140 100 l 29
 640 100 l 29
 640 0 l 29xd0
EndSplineSet
Validated: 1
EndChar

StartChar: j
Encoding: 106 106 33
Width: 480
VWidth: 0
Flags: W
HStem: 0 21G<340 440> 0 21G<340 440> 500 100<40 340>
VStem: 340 100<0 500>
LayerCount: 2
Fore
SplineSet
40 600 m 25xb0
 440 600 l 29
 440 0 l 25
 340 0 l 25
 340 500 l 25
 40 500 l 25
 40 600 l 25xb0
EndSplineSet
Validated: 1
EndChar

StartChar: m
Encoding: 109 109 34
Width: 680
VWidth: 0
Flags: W
HStem: 0 21G<40 140> 0 21G<40 140> 500 100<140 540>
VStem: 40 100<0 500> 540 100<300 500>
LayerCount: 2
Fore
SplineSet
640 300 m 29xb8
 540 300 l 25
 540 500 l 25
 140 500 l 25
 140 0 l 25
 40 0 l 25
 40 600 l 25
 640 600 l 25
 640 300 l 29xb8
EndSplineSet
Validated: 1
EndChar

StartChar: n
Encoding: 110 110 35
Width: 680
VWidth: 0
Flags: W
HStem: 0 100<140 540> 500 100<140 540>
VStem: 40 100<-200 0 100 500> 540 100<100 500>
LayerCount: 2
Fore
SplineSet
140 100 m 29
 540 100 l 29
 540 500 l 21
 140 500 l 13
 140 100 l 29
640 600 m 29
 640 0 l 21
 140 0 l 5
 140 -200 l 5
 40 -200 l 5
 40 0 l 13
 40 600 l 29
 640 600 l 29
EndSplineSet
Validated: 1
EndChar

StartChar: o
Encoding: 111 111 36
Width: 680
VWidth: 0
Flags: W
HStem: 0 100<140 540> 580 20G<40 140> 580 20G<40 140>
VStem: 40 100<100 600> 540 100<100 300>
LayerCount: 2
Fore
SplineSet
640 300 m 29xd8
 640 0 l 25
 40 0 l 25
 40 600 l 25
 140 600 l 25
 140 100 l 25
 540 100 l 25
 540 300 l 29
 640 300 l 29xd8
EndSplineSet
Validated: 1
EndChar

StartChar: p
Encoding: 112 112 37
Width: 480
VWidth: 0
Flags: W
HStem: 0 21G<40 140> 0 21G<40 140> 500 100<140 440>
VStem: 40 100<0 500>
LayerCount: 2
Fore
SplineSet
440 600 m 29xb0
 440 500 l 29
 140 500 l 29
 140 0 l 29
 40 0 l 29
 40 600 l 29
 440 600 l 29xb0
EndSplineSet
Validated: 1
EndChar

StartChar: q
Encoding: 113 113 38
Width: 680
VWidth: 0
Flags: W
HStem: 0 100<140 640> 500 100<140 340>
VStem: 40 100<100 500>
LayerCount: 2
Fore
SplineSet
340 600 m 29
 340 500 l 29
 140 500 l 25
 140 100 l 25
 640 100 l 25
 640 0 l 25
 40 0 l 25
 40 600 l 25
 340 600 l 29
EndSplineSet
Validated: 1
EndChar

StartChar: r
Encoding: 114 114 39
Width: 480
VWidth: 0
Flags: W
HStem: 0 100<140 440> 580 20G<40 140> 580 20G<40 140>
VStem: 40 100<100 600>
LayerCount: 2
Fore
SplineSet
440 0 m 25xd0
 40 0 l 25
 40 600 l 25
 140 600 l 25
 140 100 l 25
 440 100 l 25
 440 0 l 25xd0
EndSplineSet
Validated: 1
EndChar

StartChar: s
Encoding: 115 115 40
Width: 480
VWidth: 0
Flags: W
HStem: 0 21G<340 440> 0 21G<340 440> 220 180<140 240> 500 100<40 340>
VStem: 140 100<220 400> 340 100<0 500>
LayerCount: 2
Fore
SplineSet
40 600 m 25xbc
 440 600 l 25
 440 0 l 25
 340 0 l 25
 340 500 l 25
 40 500 l 25
 40 600 l 25xbc
240 220 m 9
 140 220 l 25
 140 400 l 25
 240 400 l 17
 240 220 l 9
EndSplineSet
Validated: 1
EndChar

StartChar: T
Encoding: 84 84 41
Width: 880
VWidth: 0
Flags: HWO
HStem: 0 100<40 740> 350 100<340 440> 700 100<390 740>
VStem: 340 100<350 450> 740 100<100 700>
CounterMasks: 1 e0
LayerCount: 2
Fore
SplineSet
440 350 m 9
 340 350 l 25
 340 450 l 25
 440 450 l 17
 440 350 l 9
390 800 m 25
 840 800 l 25
 840 0 l 25
 40 0 l 25
 40 100 l 25
 740 100 l 25
 740 700 l 25
 390 700 l 25
 390 800 l 25
EndSplineSet
Validated: 1
EndChar

StartChar: t
Encoding: 116 116 42
Width: 680
VWidth: 0
Flags: W
HStem: 0 100<40 540> 250 100<240 340> 500 100<340 540>
VStem: 240 100<250 350> 540 100<100 500>
CounterMasks: 1 e0
LayerCount: 2
Fore
SplineSet
340 250 m 13
 240 250 l 29
 240 350 l 29
 340 350 l 21
 340 250 l 13
340 600 m 25
 640 600 l 25
 640 0 l 25
 40 0 l 25
 40 100 l 25
 540 100 l 25
 540 500 l 25
 340 500 l 25
 340 600 l 25
EndSplineSet
Validated: 1
EndChar

StartChar: u
Encoding: 117 117 43
Width: 480
VWidth: 0
Flags: W
HStem: 0 100<40 340> 200 180<140 240> 580 20G<340 440> 580 20G<340 440>
VStem: 140 100<200 380> 340 100<100 600>
LayerCount: 2
Fore
SplineSet
40 0 m 29xec
 40 100 l 29
 340 100 l 29
 340 600 l 29
 440 600 l 29
 440 0 l 29
 40 0 l 29xec
240 380 m 21
 240 200 l 13
 140 200 l 29
 140 380 l 29
 240 380 l 21
EndSplineSet
Validated: 1
EndChar

StartChar: v
Encoding: 118 118 44
Width: 680
VWidth: 0
Flags: W
HStem: 0 21G<40 140> 0 21G<40 140> 200 180<290 390> 500 100<140 540>
VStem: 40 100<0 500> 290 100<200 380> 540 100<250 500>
CounterMasks: 1 0e
LayerCount: 2
Fore
SplineSet
390 200 m 9x3e
 290 200 l 25
 290 380 l 25
 390 380 l 17
 390 200 l 9x3e
640 250 m 29
 540 250 l 29
 540 500 l 25
 140 500 l 25
 140 0 l 25
 40 0 l 25xbe
 40 600 l 25
 640 600 l 25
 640 250 l 29
EndSplineSet
Validated: 1
EndChar

StartChar: V
Encoding: 86 86 45
Width: 880
VWidth: 0
Flags: HW
HStem: 0 21G<40 140> 0 21G<40 140> 300 100<390 490> 700 100<140 740>
VStem: 40 100<0 700> 390 100<300 400> 740 100<400 700>
CounterMasks: 1 0e
LayerCount: 2
Fore
SplineSet
490 300 m 13x3e
 390 300 l 29
 390 400 l 29
 490 400 l 21
 490 300 l 13x3e
840 400 m 25
 740 400 l 25
 740 700 l 25
 140 700 l 25
 140 0 l 25
 40 0 l 25xbe
 40 800 l 25
 840 800 l 25
 840 400 l 25
EndSplineSet
Validated: 1
EndChar

StartChar: w
Encoding: 119 119 46
Width: 680
VWidth: 0
Flags: W
HStem: 0 100<140 540> 230 140<270 410> 500 100<140 540>
VStem: 40 100<-200 0 100 500> 270 140<230 370> 540 100<100 500>
CounterMasks: 1 fc
LayerCount: 2
Fore
SplineSet
410 230 m 13
 270 230 l 29
 270 370 l 29
 410 370 l 21
 410 230 l 13
140 100 m 25
 540 100 l 25
 540 500 l 17
 140 500 l 9
 140 100 l 25
640 600 m 25
 640 0 l 17
 140 0 l 1
 140 -200 l 1
 40 -200 l 1
 40 0 l 9
 40 600 l 25
 640 600 l 25
EndSplineSet
Validated: 1
EndChar

StartChar: X
Encoding: 88 88 47
Width: 880
VWidth: 0
Flags: HW
HStem: 0 100<140 740> 370 180<390 490> 580 20G<740 840> 580 20G<740 840> 780 20G<40 140>
VStem: 40 100<100 800> 390 100<370 550> 740 100<100 600>
CounterMasks: 1 07
LayerCount: 2
Fore
SplineSet
490 550 m 21xcf
 490 370 l 13
 390 370 l 29
 390 550 l 29
 490 550 l 21xcf
840 600 m 25xef
 840 0 l 25
 40 0 l 25
 40 800 l 25
 140 800 l 25
 140 100 l 25
 740 100 l 25
 740 600 l 25
 840 600 l 25xef
EndSplineSet
Validated: 1
EndChar

StartChar: x
Encoding: 120 120 48
Width: 680
VWidth: 0
Flags: W
HStem: 0 100<140 540> 220 180<290 390> 580 20G<40 140> 580 20G<40 140>
VStem: 40 100<100 600> 290 100<220 400> 540 100<100 400>
CounterMasks: 1 0e
LayerCount: 2
Fore
SplineSet
390 400 m 21xce
 390 220 l 13
 290 220 l 29
 290 400 l 29
 390 400 l 21xce
640 400 m 29
 640 0 l 29
 40 0 l 29
 40 600 l 29
 140 600 l 29xee
 140 100 l 29
 540 100 l 29
 540 400 l 29
 640 400 l 29
EndSplineSet
Validated: 1
EndChar

StartChar: y
Encoding: 121 121 49
Width: 480
VWidth: 0
Flags: W
HStem: 0 21G<40 140> 0 21G<40 140> 220 180<240 340> 500 100<140 440>
VStem: 40 100<0 500> 240 100<220 400>
LayerCount: 2
Fore
SplineSet
440 600 m 25xbc
 440 500 l 25
 140 500 l 25
 140 0 l 25
 40 0 l 25
 40 600 l 25
 440 600 l 25xbc
240 220 m 17
 240 400 l 9
 340 400 l 25
 340 220 l 25
 240 220 l 17
EndSplineSet
Validated: 1
EndChar

StartChar: Y
Encoding: 89 89 50
Width: 680
VWidth: 0
Flags: HW
HStem: 0 21G<40 140> 0 21G<40 140> 320 180<340 440> 700 100<140 640>
VStem: 40 100<0 700> 340 100<320 500>
LayerCount: 2
Fore
SplineSet
340 320 m 21x3c
 340 500 l 13
 440 500 l 29
 440 320 l 29
 340 320 l 21x3c
640 800 m 29
 640 700 l 29
 140 700 l 29
 140 0 l 29
 40 0 l 29xbc
 40 800 l 29
 640 800 l 29
EndSplineSet
Validated: 1
EndChar

StartChar: z
Encoding: 122 122 51
Width: 680
VWidth: 0
Flags: W
HStem: 0 100<140 640> 250 100<260 440> 500 100<140 440>
VStem: 40 100<100 500> 260 180<250 350>
CounterMasks: 1 e0
LayerCount: 2
Fore
SplineSet
260 250 m 21
 260 350 l 13
 440 350 l 29
 440 250 l 29
 260 250 l 21
440 600 m 29
 440 500 l 29
 140 500 l 29
 140 100 l 29
 640 100 l 29
 640 0 l 29
 40 0 l 29
 40 600 l 29
 440 600 l 29
EndSplineSet
Validated: 1
EndChar

StartChar: Z
Encoding: 90 90 52
Width: 880
VWidth: 0
Flags: HW
HStem: 0 100<140 840> 350 100<410 590> 700 100<140 640>
VStem: 40 100<100 700> 410 180<350 450>
CounterMasks: 1 e0
LayerCount: 2
Fore
SplineSet
410 350 m 21
 410 450 l 13
 590 450 l 29
 590 350 l 29
 410 350 l 21
640 800 m 29
 640 700 l 29
 140 700 l 29
 140 100 l 29
 840 100 l 29
 840 0 l 29
 40 0 l 29
 40 800 l 29
 640 800 l 29
EndSplineSet
Validated: 1
EndChar

StartChar: zero
Encoding: 48 48 54
Width: 680
Flags: W
HStem: 0 100<215 540> 700 100<140 465>
VStem: 40 100<175 700> 540 100<100 625>
LayerCount: 2
Fore
SplineSet
40 800 m 0
 640 800 l 0
 640 0 l 0
 40 0 l 0
 40 800 l 0
215 100 m 0
 540 100 l 0
 540 625 l 0
 215 100 l 0
465 700 m 0
 140 700 l 0
 140 175 l 0
 465 700 l 0
EndSplineSet
Validated: 1
EndChar

StartChar: one
Encoding: 49 49 55
Width: 680
Flags: W
HStem: 0 100<40 290 390 640> 700 100<40 290>
VStem: 290 100<100 700>
LayerCount: 2
Fore
SplineSet
390 800 m 0
 390 100 l 0
 640 100 l 0
 640 0 l 0
 40 0 l 0
 40 100 l 0
 290 100 l 0
 290 700 l 0
 40 700 l 0
 40 800 l 0
 390 800 l 0
EndSplineSet
Validated: 1
EndChar

StartChar: two
Encoding: 50 50 56
Width: 680
Flags: W
HStem: 0 100<140 640> 350 100<140 540> 700 100<40 540>
VStem: 40 100<100 350> 540 100<450 700>
CounterMasks: 1 e0
LayerCount: 2
Fore
SplineSet
640 800 m 0
 640 350 l 0
 140 350 l 0
 140 100 l 0
 640 100 l 0
 640 0 l 0
 40 0 l 0
 40 450 l 0
 540 450 l 0
 540 700 l 0
 40 700 l 0
 40 800 l 0
 640 800 l 0
EndSplineSet
Validated: 1
EndChar

StartChar: three
Encoding: 51 51 57
Width: 680
Flags: W
HStem: 0 100<40 540> 350 100<40 540> 700 100<40 540>
VStem: 540 100<100 350 450 700>
CounterMasks: 1 e0
LayerCount: 2
Fore
SplineSet
40 800 m 0
 640 800 l 0
 640 0 l 0
 40 0 l 0
 40 100 l 0
 540 100 l 0
 540 350 l 0
 40 350 l 0
 40 450 l 0
 540 450 l 0
 540 700 l 0
 40 700 l 0
 40 800 l 0
EndSplineSet
Validated: 1
EndChar

StartChar: four
Encoding: 52 52 58
Width: 680
Flags: W
HStem: 0 21G<540 640> 0 21G<540 640> 325 100<140 540> 780 20G<40 140 540 640>
VStem: 40 100<425 800> 540 100<0 325 425 800>
LayerCount: 2
Fore
SplineSet
640 0 m 0xbc
 540 0 l 0
 540 325 l 0
 40 325 l 0
 40 800 l 0
 140 800 l 0
 140 425 l 0
 540 425 l 0
 540 800 l 0
 640 800 l 0
 640 0 l 0xbc
EndSplineSet
Validated: 1
EndChar

StartChar: five
Encoding: 53 53 59
Width: 680
Flags: W
HStem: 0 100<40 540> 350 100<140 540> 700 100<140 640>
VStem: 40 100<450 700> 540 100<100 350>
CounterMasks: 1 e0
LayerCount: 2
Fore
SplineSet
40 800 m 0
 640 800 l 0
 640 700 l 0
 140 700 l 0
 140 450 l 0
 640 450 l 0
 640 0 l 0
 40 0 l 0
 40 100 l 0
 540 100 l 0
 540 350 l 0
 40 350 l 0
 40 800 l 0
EndSplineSet
Validated: 1
EndChar

StartChar: six
Encoding: 54 54 60
Width: 680
Flags: W
HStem: 0 100<140 540> 325 100<140 540> 700 100<140 640>
VStem: 40 100<100 325 425 700> 540 100<100 325>
LayerCount: 2
Fore
SplineSet
140 325 m 0
 140 100 l 0
 540 100 l 0
 540 325 l 0
 140 325 l 0
40 800 m 0
 640 800 l 0
 640 700 l 0
 140 700 l 0
 140 425 l 0
 640 425 l 0
 640 0 l 0
 40 0 l 0
 40 800 l 0
EndSplineSet
Validated: 1
EndChar

StartChar: seven
Encoding: 55 55 61
Width: 680
Flags: W
HStem: 0 21G<415 515> 0 21G<415 515> 300 100<290 415 515 640> 700 100<140 415>
VStem: 40 100<550 700> 415 100<0 300 400 700>
LayerCount: 2
Fore
SplineSet
515 800 m 0xbc
 515 400 l 0
 640 400 l 0
 640 300 l 0
 515 300 l 0
 515 0 l 0
 415 0 l 0
 415 300 l 0
 290 300 l 0
 290 400 l 0
 415 400 l 0
 415 700 l 0
 140 700 l 0
 140 550 l 0
 40 550 l 0
 40 800 l 0
 515 800 l 0xbc
EndSplineSet
Validated: 1
EndChar

StartChar: eight
Encoding: 56 56 62
Width: 680
Flags: W
HStem: 0 100<165 515> 350 100<165 515> 700 100<165 515>
VStem: 40 125<100 350 450 700> 515 125<100 350 450 700>
CounterMasks: 1 e0
LayerCount: 2
Fore
SplineSet
165 700 m 0
 165 450 l 0
 515 450 l 0
 515 700 l 0
 165 700 l 0
165 350 m 0
 165 100 l 0
 515 100 l 0
 515 350 l 0
 165 350 l 0
40 800 m 0
 640 800 l 0
 640 0 l 0
 40 0 l 0
 40 800 l 0
EndSplineSet
Validated: 1
EndChar

StartChar: nine
Encoding: 57 57 63
Width: 680
Flags: W
HStem: 0 100<40 540> 325 100<140 540> 700 100<140 540>
VStem: 40 100<425 700> 540 100<100 325 425 700>
LayerCount: 2
Fore
SplineSet
540 425 m 0
 540 700 l 0
 140 700 l 0
 140 425 l 0
 540 425 l 0
640 0 m 0
 40 0 l 0
 40 100 l 0
 540 100 l 0
 540 325 l 0
 40 325 l 0
 40 800 l 0
 640 800 l 0
 640 0 l 0
EndSplineSet
Validated: 1
EndChar

StartChar: asciitilde
Encoding: 126 126 64
Width: 630
VWidth: 0
Flags: W
HStem: 275 200
LayerCount: 2
Fore
SplineSet
490 475 m 1
 590 475 l 1
 490 275 l 1
 390 275 l 1
 240 375 l 1
 140 275 l 1
 40 275 l 1
 140 475 l 1
 240 475 l 1
 390 375 l 1
 490 475 l 1
EndSplineSet
Validated: 1
EndChar

StartChar: quotedbl
Encoding: 34 34 65
Width: 380
Flags: W
HStem: 600 200<40 140 240 340>
VStem: 40 100<600 800> 240 100<600 800>
LayerCount: 2
Fore
SplineSet
240 800 m 0
 340 800 l 0
 340 600 l 0
 240 600 l 0
 240 800 l 0
40 800 m 0
 140 800 l 0
 140 600 l 0
 40 600 l 0
 40 800 l 0
EndSplineSet
Validated: 1
EndChar

StartChar: quotesingle
Encoding: 39 39 66
Width: 180
Flags: W
HStem: 600 200<40 140>
VStem: 40 100<600 800>
LayerCount: 2
Fore
SplineSet
40 800 m 0
 140 800 l 0
 140 600 l 0
 40 600 l 0
 40 800 l 0
EndSplineSet
Validated: 1
EndChar

StartChar: at
Encoding: 64 64 67
Width: 680
Flags: W
HStem: 0 100<140 640> 485 100<240 540> 700 100<140 540>
VStem: 40 100<100 700> 540 100<185 485 585 700>
LayerCount: 2
Fore
SplineSet
40 0 m 0
 40 800 l 0
 640 800 l 0
 640 185 l 0
 540 185 l 0
 540 485 l 0
 240 485 l 0
 240 585 l 0
 540 585 l 0
 540 700 l 0
 140 700 l 0
 140 100 l 0
 640 100 l 0
 640 0 l 0
 40 0 l 0
40 0 m 0
EndSplineSet
Validated: 1
EndChar

StartChar: question
Encoding: 63 63 68
Width: 680
Flags: W
HStem: 0 100<290 390> 300 100<390 540> 700 100<140 540>
VStem: 40 100<500 700> 290 100<0 100 200 300> 540 100<400 700>
CounterMasks: 1 1c
LayerCount: 2
Fore
SplineSet
290 0 m 0
 290 100 l 0
 390 100 l 0
 390 0 l 0
 290 0 l 0
290 400 m 0
 540 400 l 0
 540 700 l 0
 140 700 l 0
 140 500 l 0
 40 500 l 0
 40 800 l 0
 640 800 l 0
 640 300 l 0
 390 300 l 0
 390 200 l 0
 290 200 l 0
 290 400 l 0
EndSplineSet
Validated: 1
EndChar

StartChar: numbersign
Encoding: 35 35 69
Width: 780
Flags: W
HStem: 0 21G<190 290 490 590> 0 21G<190 290 490 590> 150 100<40 190 290 490 590 740> 550 100<40 190 290 490 590 740> 780 20G<190 290 490 590>
VStem: 190 100<0 150 250 550 650 800> 490 100<0 150 250 550 650 800>
LayerCount: 2
Fore
SplineSet
490 250 m 0x3e
 490 550 l 0
 290 550 l 0
 290 250 l 0
 490 250 l 0x3e
590 150 m 0
 590 0 l 0
 490 0 l 0
 490 150 l 0
 290 150 l 0
 290 0 l 0
 190 0 l 0xbe
 190 150 l 0
 40 150 l 0
 40 250 l 0
 190 250 l 0
 190 550 l 0
 40 550 l 0
 40 650 l 0
 190 650 l 0
 190 800 l 0
 290 800 l 0
 290 650 l 0
 490 650 l 0
 490 800 l 0
 590 800 l 0
 590 650 l 0
 740 650 l 0
 740 550 l 0
 590 550 l 0
 590 250 l 0
 740 250 l 0
 740 150 l 0
 590 150 l 0
EndSplineSet
Validated: 1
EndChar

StartChar: dollar
Encoding: 36 36 70
Width: 680
Flags: W
HStem: 0 21G<290 390> 0 21G<290 390> 100 100<40 290 390 540> 350 100<140 290 390 540> 600 100<140 290 390 640> 780 20G<290 390>
VStem: 40 100<450 600> 290 100<0 100 200 350 450 600 700 800> 540 100<200 350>
CounterMasks: 1 0380
LayerCount: 2
Fore
SplineSet
540 350 m 0x3f80
 390 350 l 0
 390 200 l 0
 540 200 l 0
 540 350 l 0x3f80
290 600 m 0
 140 600 l 0
 140 450 l 0
 290 450 l 0
 290 600 l 0
40 700 m 0
 290 700 l 0
 290 800 l 0
 390 800 l 0
 390 700 l 0
 640 700 l 0
 640 600 l 0
 390 600 l 0
 390 450 l 0
 640 450 l 0
 640 100 l 0
 390 100 l 0
 390 0 l 0
 290 0 l 0xbf80
 290 100 l 0
 40 100 l 0
 40 200 l 0
 290 200 l 0
 290 350 l 0
 40 350 l 0
 40 700 l 0
EndSplineSet
Validated: 1
EndChar

StartChar: percent
Encoding: 37 37 71
Width: 780
Flags: W
HStem: 0 21G<195 227.857> 0 21G<195 227.857> 50 50<540 690> 250 50<540 690> 500 50<90 240> 700 50<90 240> 780 20G<552.143 585>
VStem: 40 50<550 700> 240 50<550 700> 490 50<100 250> 690 50<100 250>
LayerCount: 2
Fore
SplineSet
565 800 m 0xbfe0
 665 700 l 0
 215 0 l 0
 115 100 l 0
 565 800 l 0xbfe0
240 700 m 0
 90 700 l 0
 90 550 l 0
 240 550 l 0
 240 700 l 0
40 750 m 0
 290 750 l 0
 290 500 l 0
 40 500 l 0
 40 750 l 0
690 250 m 0
 540 250 l 0
 540 100 l 0
 690 100 l 0
 690 250 l 0
490 300 m 0
 740 300 l 0
 740 50 l 0
 490 50 l 0
 490 300 l 0
EndSplineSet
Validated: 1
EndChar

StartChar: ampersand
Encoding: 38 38 72
Width: 680
Flags: W
HStem: 0 100<140 420 540 640> 350 100<140 340> 700 100<140 340>
VStem: 40 100<100 350 450 700> 340 100<450 700>
CounterMasks: 1 e0
LayerCount: 2
Fore
SplineSet
140 700 m 0
 140 450 l 0
 340 450 l 0
 340 700 l 0
 140 700 l 0
140 350 m 0
 140 100 l 0
 420 100 l 0
 390 350 l 0
 140 350 l 0
440 451 m 0
 540 100 l 0
 640 100 l 0
 640 0 l 0
 40 0 l 0
 40 800 l 0
 440 800 l 0
 440 451 l 0
EndSplineSet
Validated: 1
EndChar

StartChar: asciicircum
Encoding: 94 94 73
Width: 730
VWidth: 0
Flags: W
HStem: 450 250
LayerCount: 2
Fore
SplineSet
40 450 m 29
 290 700 l 29
 440 700 l 29
 690 450 l 29
 540 450 l 29
 365 625 l 29
 190 450 l 29
 40 450 l 29
EndSplineSet
Validated: 1
EndChar

StartChar: asterisk
Encoding: 42 42 74
Width: 480
Flags: W
HStem: 600 100<40 165 315 440> 780 20G<190 290>
VStem: 190 100<700 800>
LayerCount: 2
Fore
SplineSet
315 600 m 0
 415 500 l 0
 340 425 l 0
 240 525 l 0
 140 425 l 0
 65 500 l 0
 165 600 l 0
 40 600 l 0
 40 700 l 0
 190 700 l 0
 190 800 l 0
 290 800 l 0
 290 700 l 0
 440 700 l 0
 440 600 l 0
 315 600 l 0
EndSplineSet
Validated: 1
EndChar

StartChar: parenleft
Encoding: 40 40 75
Width: 330
Flags: W
HStem: 780 20G<195 235>
VStem: 40 100<125 575>
LayerCount: 2
Fore
SplineSet
215 800 m 0
 290 725 l 0
 140 575 l 0
 140 125 l 0
 290 -25 l 0
 215 -100 l 0
 40 75 l 0
 40 625 l 0
 215 800 l 0
EndSplineSet
Validated: 1
EndChar

StartChar: parenright
Encoding: 41 41 76
Width: 330
Flags: W
HStem: 780 20G<95 135>
VStem: 190 100<125 575>
LayerCount: 2
Fore
SplineSet
115 800 m 0
 290 625 l 0
 290 75 l 0
 115 -100 l 0
 40 -25 l 0
 190 125 l 0
 190 575 l 0
 40 725 l 0
 115 800 l 0
EndSplineSet
Validated: 1
EndChar

StartChar: hyphen
Encoding: 45 45 77
Width: 480
Flags: W
HStem: 300 100<40 440>
LayerCount: 2
Fore
SplineSet
40 300 m 0
 40 400 l 0
 440 400 l 0
 440 300 l 0
 40 300 l 0
EndSplineSet
Validated: 1
EndChar

StartChar: underscore
Encoding: 95 95 78
Width: 740
VWidth: 0
Flags: W
HStem: -100 101<40 700>
LayerCount: 2
Fore
SplineSet
40 -100 m 1
 40 1 l 1
 700 1 l 1
 700 -100 l 1
 40 -100 l 1
EndSplineSet
Validated: 1
EndChar

StartChar: plus
Encoding: 43 43 79
Width: 480
Flags: W
HStem: 300 100<40 190 290 440>
VStem: 190 100<150 300 400 550>
LayerCount: 2
Fore
SplineSet
40 300 m 0
 40 400 l 0
 190 400 l 0
 190 550 l 0
 290 550 l 0
 290 400 l 0
 440 400 l 0
 440 300 l 0
 290 300 l 0
 290 150 l 0
 190 150 l 4
 190 300 l 0
 40 300 l 0
EndSplineSet
Validated: 1
EndChar

StartChar: equal
Encoding: 61 61 80
Width: 580
Flags: W
HStem: 150 100<40 540> 450 100<40 540>
LayerCount: 2
Fore
SplineSet
40 450 m 0
 40 550 l 0
 540 550 l 0
 540 450 l 0
 40 450 l 0
40 150 m 0
 40 250 l 0
 540 250 l 0
 540 150 l 0
 40 150 l 0
EndSplineSet
Validated: 1
EndChar

StartChar: period
Encoding: 46 46 81
Width: 230
Flags: W
HStem: 0 150<40 190>
VStem: 40 150<0 150>
LayerCount: 2
Fore
SplineSet
40 0 m 0
 40 150 l 0
 190 150 l 0
 190 0 l 0
 40 0 l 0
EndSplineSet
Validated: 1
EndChar

StartChar: comma
Encoding: 44 44 82
Width: 330
Flags: W
HStem: -100 250<140 170>
VStem: 140 150<0 150>
LayerCount: 2
Fore
SplineSet
140 0 m 0
 140 150 l 0
 290 150 l 0
 290 0 l 0
 170 -100 l 0
 40 -100 l 0
 140 0 l 0
894 -234 m 0
EndSplineSet
Validated: 1
EndChar

StartChar: slash
Encoding: 47 47 83
Width: 830
Flags: W
HStem: 780 20G<673.75 710>
LayerCount: 2
Fore
SplineSet
690 800 m 0
 790 700 l 0
 140 -100 l 0
 40 0 l 0
 690 800 l 0
EndSplineSet
Validated: 1
EndChar

StartChar: backslash
Encoding: 92 92 84
Width: 750
VWidth: 0
Flags: W
LayerCount: 2
Fore
SplineSet
175 700 m 29
 725 0 l 29
 575 -150 l 29
 25 550 l 29
 175 700 l 29
EndSplineSet
Validated: 1
EndChar

StartChar: colon
Encoding: 58 58 85
Width: 230
Flags: HMW
LayerCount: 2
Fore
SplineSet
50 0 m 0
 50 150 l 0
 190 150 l 0
 190 0 l 0
 50 0 l 0
40 500 m 0
 40 640 l 0
 190 640 l 0
 190 500 l 0
 40 500 l 0
EndSplineSet
Validated: 1
EndChar

StartChar: semicolon
Encoding: 59 59 86
Width: 330
Flags: W
HStem: 500 140<140 290>
VStem: 140 150<0 150 500 640>
LayerCount: 2
Fore
SplineSet
140 500 m 0
 140 640 l 0
 290 640 l 0
 290 500 l 0
 140 500 l 0
140 0 m 0
 140 150 l 0
 290 150 l 0
 290 0 l 0
 170 -100 l 0
 40 -100 l 0
 140 0 l 0
EndSplineSet
Validated: 1
EndChar

StartChar: less
Encoding: 60 60 87
Width: 480
Flags: W
HStem: 0 21G<405.217 440> 0 21G<405.217 440>
LayerCount: 2
Fore
SplineSet
440 550 m 0x80
 440 450 l 0
 140 275 l 0
 440 100 l 0
 440 0 l 0
 40 230 l 0
 40 320 l 0
 440 550 l 0x80
EndSplineSet
Validated: 1
EndChar

StartChar: greater
Encoding: 62 62 88
Width: 480
Flags: W
HStem: 0 21G<40 74.7826> 0 21G<40 74.7826>
LayerCount: 2
Fore
SplineSet
40 550 m 0x80
 440 320 l 0
 440 230 l 0
 40 0 l 0
 40 100 l 0
 340 275 l 0
 40 450 l 0
 40 550 l 0x80
EndSplineSet
Validated: 1
EndChar

StartChar: bar
Encoding: 124 124 89
Width: 180
VWidth: 0
Flags: W
HStem: 780 20G<40 140>
VStem: 40 100<-150 800>
LayerCount: 2
Fore
SplineSet
40 -150 m 1
 40 800 l 1
 140 800 l 1
 140 -150 l 1
 40 -150 l 1
EndSplineSet
Validated: 1
EndChar

StartChar: bracketleft
Encoding: 91 91 90
Width: 380
Flags: W
HStem: -150 100<140 340> 700 100<140 340>
VStem: 40 300<-150 -50 700 800> 40 100<-50 700>
LayerCount: 2
Fore
SplineSet
40 800 m 5xe0
 340 800 l 5
 340 700 l 5xe0
 140 700 l 5
 140 -50 l 5xd0
 340 -50 l 5
 340 -150 l 5
 40 -150 l 5
 40 800 l 5xe0
EndSplineSet
Validated: 1
EndChar

StartChar: bracketright
Encoding: 93 93 91
Width: 380
Flags: W
HStem: -150 100<40 240> 700 100<40 240>
VStem: 40 300<-150 -50 700 800> 240 100<-50 700>
LayerCount: 2
Fore
SplineSet
340 800 m 1xe0
 340 -150 l 1
 40 -150 l 1
 40 -50 l 1xe0
 240 -50 l 1
 240 700 l 1xd0
 40 700 l 1
 40 800 l 1
 340 800 l 1xe0
EndSplineSet
Validated: 1
EndChar

StartChar: braceleft
Encoding: 123 123 92
Width: 530
VWidth: 0
Flags: W
HStem: -150 100<290 490> 275 100<40 190> 700 100<290 490>
VStem: 190 300<-150 -50 700 800> 190 100<-50 275 375 700>
CounterMasks: 1 e0
LayerCount: 2
Fore
SplineSet
190 800 m 1xf0
 490 800 l 1
 490 700 l 1xf0
 290 700 l 1
 290 -50 l 1xe8
 490 -50 l 1
 490 -150 l 1
 190 -150 l 1xf0
 190 275 l 1
 40 275 l 1
 40 375 l 1
 190 375 l 1xe8
 190 800 l 1xf0
EndSplineSet
Validated: 1
EndChar

StartChar: braceright
Encoding: 125 125 93
Width: 530
VWidth: 0
Flags: W
HStem: -150 100<40 240> 275 100<340 490> 700 100<40 240>
VStem: 40 300<-150 -50 700 800> 240 100<-50 275 375 700>
CounterMasks: 1 e0
LayerCount: 2
Fore
SplineSet
340 800 m 1xf0
 340 375 l 1
 490 375 l 1
 490 275 l 1
 340 275 l 1xe8
 340 -150 l 1
 40 -150 l 1
 40 -50 l 1xf0
 240 -50 l 1
 240 700 l 1xe8
 40 700 l 1
 40 800 l 1
 340 800 l 1xf0
EndSplineSet
Validated: 1
EndChar

StartChar: grave
Encoding: 96 96 94
Width: 280
VWidth: 0
Flags: W
HStem: 500 200
VStem: 40 200
LayerCount: 2
Fore
SplineSet
40 700 m 1
 140 700 l 1
 240 500 l 1
 140 500 l 1
 40 700 l 1
EndSplineSet
Validated: 1
EndChar
